# xmcd
#
# Track frame offsets:
#	150
#	4080
#	24915
#	44297
#	64202
#	83307
#	99767
#	121870
#	140657
#	157832
#
# Disc length: 2365 seconds
#
# Revision: 1
# Processed by: cddbd v1.5.2PL0 Copyright (c) Steve Scherf et al.
# Submitted via: audiograbber 1.83.01
#
DISCID=67093b0a
DTITLE=Limi-T 21 - Sabe A Limi-T
DYEAR=2000
DGENRE=Latin
TTITLE0=Sabe A Limi-T
TTITLE1=Como Tu Me Quiere' A Mi
TTITLE2=El Tiempo Dira
TTITLE3=Tengo Un Nuevo Amor
TTITLE4=Si Supieras
TTITLE5=Dime
TTITLE6=Te Llamo (Telefono)
TTITLE7=Y Dale...
TTITLE8=Tal Para Cual
TTITLE9=Te Lo Va' Perder
EXTD=limite 21\nsabe a limi-t\nmerengue
EXTT0=
EXTT1=
EXTT2=
EXTT3=
EXTT4=
EXTT5=
EXTT6=
EXTT7=
EXTT8=
EXTT9=
PLAYORDER=
